<svg xmlns="http://www.w3.org/2000/svg" viewBox="0 0 800 800" width="800" height="800">
  <rect width="800" height="800" fill="#0d0d12"/>

  <!-- Blue — 13.5px horizontal offset -->
  <g transform="translate(413.5,400) scale(22)" fill="none" stroke="#2255ff" stroke-width=".5" stroke-linejoin="miter" stroke-linecap="butt">
    <polygon points="0,-9.375 8.66,-4.375 8.66,5.625 0,10.625 -8.66,5.625 -8.66,-4.375"/>
    <line x1="0" y1="-9.375" x2="0" y2="10.625"/>
    <line x1="-8.66" y1="-4.375" x2="0" y2="-0.375"/>
    <line x1="8.66" y1="-4.375" x2="0" y2="-0.375"/>
  </g>

  <!-- Magenta — 8.5px horizontal offset -->
  <g transform="translate(408.5,400) scale(22)" fill="none" stroke="#cc44ff" stroke-width=".5" stroke-linejoin="miter" stroke-linecap="butt">
    <polygon points="0,-9.375 8.66,-4.375 8.66,5.625 0,10.625 -8.66,5.625 -8.66,-4.375"/>
    <line x1="0" y1="-9.375" x2="0" y2="10.625"/>
    <line x1="-8.66" y1="-4.375" x2="0" y2="-0.375"/>
    <line x1="8.66" y1="-4.375" x2="0" y2="-0.375"/>
  </g>

  <!-- White — front -->
  <g transform="translate(400,400) scale(22)" fill="none" stroke="#ffffff" stroke-width=".5" stroke-linejoin="miter" stroke-linecap="butt">
    <polygon points="0,-9.375 8.66,-4.375 8.66,5.625 0,10.625 -8.66,5.625 -8.66,-4.375"/>
    <line x1="0" y1="-9.375" x2="0" y2="10.625"/>
    <line x1="-8.66" y1="-4.375" x2="0" y2="-0.375"/>
    <line x1="8.66" y1="-4.375" x2="0" y2="-0.375"/>
  </g>
</svg>
