<?xml version="1.0" encoding="UTF-8"?>
<!-- Generator: visioncortex VTracer 0.6.12 -->
<svg version="1.1" xmlns="http://www.w3.org/2000/svg" width="800" height="800">
<path d="M0 0 C264 0 528 0 800 0 C800 264 800 528 800 800 C536 800 272 800 0 800 C0 536 0 272 0 0 Z " fill="#F7F6F1" transform="translate(0,0)"/>
<path d="M0 0 C0.99 0.165 0.99 0.165 6 1 C6.165 1.495 6.165 1.495 7 4 C7.637 4.298 8.274 4.596 8.93 4.902 C11.657 6.348 12.039 7.72 13.125 10.562 C14.806 14.903 14.806 14.903 17 16 C18.781 20.923 19.363 25.656 19.754 30.863 C20 33 20 33 21 35 C21.12 36.79 21.177 38.584 21.205 40.378 C21.215 40.948 21.215 40.948 21.266 43.833 C21.282 45.088 21.299 46.343 21.316 47.637 C21.327 48.294 21.327 48.294 21.38 51.622 C21.436 55.226 21.485 58.831 21.532 62.435 C21.562 64.681 21.594 66.926 21.627 69.172 C22.084 101.115 22.111 133.055 22 165 C22.753 164.991 23.505 164.981 24.281 164.972 C24.775 164.968 24.775 164.968 27.277 164.95 C28.257 164.94 29.236 164.931 30.245 164.921 C33.615 165.018 36.395 165.743 39.562 166.875 C44.33 168.492 48.903 169.663 53.879 170.41 C56.458 171.127 58.027 172.206 60 174 C60 174.66 60 175.32 60 176 C60.99 176.33 61.98 176.66 63 177 C66.206 180.514 66.851 183.512 67.199 188.152 C66.82 193.573 64.34 198.172 62 203 C61.224 204.748 60.452 206.497 59.688 208.25 C59.126 209.501 58.565 210.751 58 212 C57.34 212 56.68 212 56 212 C55.887 212.299 55.887 212.299 55.312 213.812 C53.661 216.566 51.761 217.442 49 219 C48.67 219.66 48.34 220.32 48 221 C46.031 221.965 46.031 221.965 43.5 222.938 C42.602 223.283 41.703 223.628 40.777 223.984 C36.878 225.41 32.952 226.731 29 228 C28.01 228.33 27.02 228.66 26 229 C26 223.06 26 217.12 26 211 C39.625 208 39.625 208 43 208 C43 207.34 43 206.68 43 206 C44.65 206 46.3 206 48 206 C48 205.34 48 204.68 48 204 C51.317 202.578 54.442 201.61 58 201 C57.67 199.35 57.34 197.7 57 196 C56.01 196 55.02 196 54 196 C53.608 195.423 53.216 194.845 52.812 194.25 C47.483 187.634 38.106 186.735 30.25 185.312 C28.026 184.892 25.802 184.472 23.578 184.051 C23.09 183.961 23.09 183.961 20.622 183.509 C19.119 183.217 17.62 182.896 16.144 182.492 C13.764 181.946 11.517 181.764 9.08 181.627 C8.592 181.599 8.592 181.599 6.127 181.455 C5.082 181.398 4.037 181.34 2.961 181.281 C0.75 181.152 -1.461 181.023 -3.672 180.895 C-7.159 180.696 -10.646 180.499 -14.134 180.302 C-17.498 180.111 -20.862 179.915 -24.227 179.719 C-25.276 179.661 -26.324 179.604 -27.405 179.545 C-28.373 179.488 -29.341 179.432 -30.338 179.373 C-31.192 179.325 -32.046 179.277 -32.926 179.227 C-35 179 -35 179 -37 178 C-38.439 177.816 -39.885 177.68 -41.332 177.57 C-41.769 177.535 -41.769 177.535 -43.982 177.354 C-44.916 177.278 -45.85 177.203 -46.812 177.125 C-59.77 175.975 -71.628 172.989 -84 169 C-84 168.34 -84 167.68 -84 167 C-84.598 166.711 -85.196 166.423 -85.812 166.125 C-89.806 164.071 -91.771 162.413 -93.422 158.18 C-95.613 149.919 -93.905 142.419 -90 135 C-87.275 130.913 -83.804 128.043 -80 125 C-79.051 124.175 -78.103 123.35 -77.125 122.5 C-74.168 120.014 -70.967 118.061 -67.637 116.113 C-66 115 -66 115 -65 113 C-62.596 111.398 -60.303 110.115 -57.602 109.086 C-55.003 108.001 -52.93 106.731 -50.625 105.125 C-40.165 98 -40.165 98 -37 98 C-37 97.34 -37 96.68 -37 96 C-36.359 95.746 -35.719 95.492 -35.059 95.23 C-21.845 89.973 -21.845 89.973 -16.125 87 C-12.645 85.23 -9.157 84.022 -5.438 82.859 C-1.652 81.525 1.917 79.751 5.52 77.988 C8 77 8 77 12 77 C11.86 72.521 11.712 68.042 11.562 63.562 C11.523 62.302 11.484 61.042 11.443 59.744 C10.793 40.593 10.793 40.593 6.625 32.688 C6.019 31.516 5.413 30.344 4.789 29.137 C3 26 3 26 1.273 23.707 C0 22 0 22 0 20 C-1.65 19.67 -3.3 19.34 -5 19 C-6.125 12.375 -6.125 12.375 -5 9 C-4.34 9 -3.68 9 -3 9 C-2.876 8.257 -2.752 7.515 -2.625 6.75 C-2.045 4.199 -1.263 2.273 0 0 Z " fill="#717A66" transform="translate(346,164)"/>
<path d="M0 0 C7 0 7 0 9 1 C9.005 1.424 9.005 1.424 9.031 3.572 C9.129 11.591 9.232 19.609 9.339 27.627 C9.394 31.748 9.448 35.87 9.497 39.992 C9.545 43.973 9.598 47.954 9.653 51.935 C9.673 53.451 9.692 54.966 9.709 56.481 C9.733 58.611 9.763 60.741 9.795 62.871 C9.802 63.476 9.802 63.476 9.842 66.539 C10.004 70.08 10.442 73.501 11 77 C11.33 76.34 11.66 75.68 12 75 C12.99 75 13.98 75 15 75 C15.33 74.01 15.66 73.02 16 72 C18.282 70.458 20.557 69.202 23.062 68.062 C25 67 25 67 27.062 64.875 C29 63 29 63 32 63 C32 62.34 32 61.68 32 61 C33.65 60.505 33.65 60.505 42 58 C42 57.34 42 56.68 42 56 C58.274 55.101 58.274 55.101 65.496 59.418 C69.107 63.216 68.152 69.131 68.125 74.062 C68.129 74.77 68.133 75.477 68.137 76.205 C68.13 79.609 68.065 82.747 67 86 C65.68 85.67 64.36 85.34 63 85 C62.948 84.691 62.948 84.691 62.688 83.125 C62 81 62 81 59 79 C59 78.34 59 77.68 59 77 C39.954 76.445 39.954 76.445 32 80 C31.423 80.165 31.423 80.165 28.5 81 C27.675 81.33 26.85 81.66 26 82 C25.67 82.99 25.34 83.98 25 85 C22.704 86.083 20.365 87.078 18 88 C16.66 88.653 15.323 89.312 14 90 C14 90.66 14 91.32 14 92 C9.615 95 9.615 95 7 95 C7 95.66 7 96.32 7 97 C5.32 98.727 5.32 98.727 3.125 100.625 C2.406 101.257 1.686 101.888 0.945 102.539 C-1 104 -1 104 -3 104 C-3.268 104.639 -3.536 105.279 -3.812 105.938 C-5 108 -5 108 -8 109 C-8 109.66 -8 110.32 -8 111 C-9.375 112.625 -9.375 112.625 -11 114 C-11.66 114 -12.32 114 -13 114 C-13.088 114.589 -13.175 115.178 -13.266 115.785 C-14.197 118.595 -15.468 119.58 -17.75 121.438 C-20.225 123.497 -22.492 125.504 -24.75 127.812 C-26.794 129.8 -28.385 130.934 -31 132 C-31 132.99 -31 133.98 -31 135 C-33.791 138.179 -36.272 140.136 -40 142 C-40.727 142.759 -41.454 143.519 -42.203 144.301 C-45.144 147.139 -48.237 149.162 -51.75 151.188 C-57.872 154.744 -57.872 154.744 -59 157 C-61.323 158.136 -63.589 159.081 -66 160 C-66.871 160.357 -67.743 160.714 -68.641 161.082 C-76.553 164.076 -83.593 164.448 -92 164 C-92 163.34 -92 162.68 -92 162 C-93.279 161.691 -94.558 161.381 -95.875 161.062 C-98.101 160.524 -99.947 160.026 -102 159 C-102 158.34 -102 157.68 -102 157 C-102.99 156.67 -103.98 156.34 -105 156 C-106.605 154.004 -106.605 154.004 -108.188 151.562 C-108.717 150.759 -109.247 149.956 -109.793 149.129 C-111 147 -111 147 -111 145 C-111.66 145 -112.32 145 -113 145 C-113.102 144.645 -113.102 144.645 -113.621 142.848 C-113.756 142.388 -113.756 142.388 -114.438 140.062 C-114.704 139.146 -114.971 138.229 -115.246 137.285 C-116 135 -116 135 -117 134 C-118.021 127.755 -118.152 121.631 -118.125 115.312 C-118.129 114.389 -118.133 113.465 -118.137 112.514 C-118.135 111.618 -118.134 110.723 -118.133 109.801 C-118.132 109.399 -118.132 109.399 -118.129 107.368 C-117.991 104.835 -117.553 102.474 -117 100 C-116.34 100 -115.68 100 -115 100 C-115 98.35 -115 96.7 -115 95 C-114.34 95.33 -113.68 95.66 -113 96 C-113 100.95 -113 105.9 -113 111 C-112.34 111 -111.68 111 -111 111 C-108.888 122.522 -108.888 122.522 -108 128 C-107.34 128 -106.68 128 -106 128 C-105.835 128.825 -105.835 128.825 -105 133 C-104.34 133 -103.68 133 -103 133 C-100.375 135.375 -100.375 135.375 -98 138 C-98 138.66 -98 139.32 -98 140 C-94.04 140.99 -90.08 141.98 -86 143 C-86 143.66 -86 144.32 -86 145 C-81.38 145 -76.76 145 -72 145 C-72 144.34 -72 143.68 -72 143 C-71.674 142.909 -71.674 142.909 -70.023 142.449 C-65.055 141.02 -60.594 139.412 -56 137 C-55.34 137 -54.68 137 -54 137 C-54 136.34 -54 135.68 -54 135 C-53.515 134.866 -53.515 134.866 -51.062 134.188 C-50.052 133.796 -49.041 133.404 -48 133 C-47.67 132.01 -47.34 131.02 -47 130 C-45.68 130 -44.36 130 -43 130 C-43 129.34 -43 128.68 -43 128 C-42.34 128 -41.68 128 -41 128 C-40.835 127.505 -40.835 127.505 -40 125 C-39.34 125 -38.68 125 -38 125 C-37.773 124.381 -37.546 123.762 -37.312 123.125 C-35.611 120.371 -33.946 120.178 -31 119 C-29.812 116.938 -29.812 116.938 -29 115 C-28.34 114.67 -27.68 114.34 -27 114 C-26.835 113.505 -26.835 113.505 -26 111 C-24.013 109.647 -22.013 108.314 -20 107 C-19.67 106.505 -19.67 106.505 -18 104 C-17.01 104 -16.02 104 -15 104 C-14.711 103.402 -14.423 102.804 -14.125 102.188 C-13 100 -13 100 -11 97 C-10.34 97 -9.68 97 -9 97 C-8.67 96.34 -8.67 96.34 -7 93 C-6.34 93 -5.68 93 -5 93 C-4.732 92.216 -4.464 91.433 -4.188 90.625 C-3 88 -3 88 0 86 C0.338 82.956 0.489 80.105 0.512 77.055 C0.521 76.612 0.521 76.612 0.566 74.373 C0.62 71.54 0.654 68.708 0.688 65.875 C0.721 63.957 0.755 62.039 0.791 60.121 C0.876 55.414 0.943 50.707 1 46 C-0.485 46.165 -0.485 46.165 -8 47 C-8 47.66 -8 48.32 -8 49 C-13.768 50.164 -19.538 51.32 -25.31 52.465 C-27.009 52.803 -28.707 53.142 -30.405 53.484 C-32.539 53.912 -34.676 54.332 -36.812 54.75 C-38.036 54.992 -39.259 55.235 -40.52 55.484 C-44.065 56.01 -47.421 56.092 -51 56 C-51 56.66 -51 57.32 -51 58 C-51.665 58.111 -52.331 58.221 -53.016 58.335 C-56.053 58.844 -59.089 59.359 -62.125 59.875 C-63.172 60.049 -64.218 60.223 -65.297 60.402 C-70.384 61.272 -75.113 62.31 -80 64 C-81.32 64 -82.64 64 -84 64 C-84 64.66 -84 65.32 -84 66 C-85.65 66 -87.3 66 -89 66 C-89 66.66 -89 67.32 -89 68 C-90.582 68.649 -92.166 69.294 -93.75 69.938 C-94.191 70.117 -94.191 70.117 -96.422 71.027 C-98.612 71.854 -100.719 72.494 -103 73 C-103 73.66 -103 74.32 -103 75 C-103.99 75 -104.98 75 -106 75 C-106.66 76.65 -107.32 78.3 -108 80 C-108.66 80 -109.32 80 -110 80 C-110.33 81.65 -110.66 83.3 -111 85 C-111.66 85 -112.32 85 -113 85 C-112.343 81.218 -111.28 77.782 -109.938 74.188 C-109.575 73.212 -109.213 72.236 -108.84 71.23 C-108.563 70.494 -108.286 69.758 -108 69 C-107.34 69 -106.68 69 -106 69 C-104.925 66.348 -103.905 63.716 -103 61 C-99.577 57.301 -96.207 54.316 -91 54 C-91 53.34 -91 52.68 -91 52 C-89.444 51.328 -87.888 50.659 -86.328 49.996 C-84.584 49.25 -82.845 48.49 -81.109 47.723 C-75.666 45.363 -70.912 43.526 -65 43 C-64.67 42.67 -64.34 42.34 -64 42 C-55.284 39.804 -47.009 38.494 -38 39 C-38 38.34 -38 37.68 -38 37 C-30.457 35.348 -22.932 33.744 -15.305 32.527 C-13 32 -13 32 -9 30 C-6.03 29.67 -3.06 29.34 0 29 C0 19.43 0 9.86 0 0 Z " fill="#717967" transform="translate(358,350)"/>
<path d="M0 0 C1.32 0 2.64 0 4 0 C4 23.1 4 46.2 4 70 C-24 68 -24 68 -29 67 C-30.971 66.805 -32.946 66.641 -34.922 66.5 C-36.029 66.418 -37.136 66.335 -38.277 66.25 C-40.608 66.082 -42.939 65.916 -45.27 65.75 C-46.372 65.668 -47.474 65.585 -48.609 65.5 C-49.62 65.428 -50.63 65.356 -51.671 65.281 C-54 65 -54 65 -55 64 C-57.118 63.645 -59.245 63.342 -61.375 63.062 C-67.621 62.211 -73.809 61.188 -80 60 C-80 59.34 -80 58.68 -80 58 C-80.562 57.888 -81.124 57.776 -81.703 57.66 C-84.315 56.909 -86.395 55.788 -88.75 54.438 C-89.549 53.982 -90.348 53.527 -91.172 53.059 C-91.474 52.884 -91.474 52.884 -93 52 C-93 50.68 -93 49.36 -93 48 C-92.34 48 -91.68 48 -91 48 C-90.67 46.68 -90.34 45.36 -90 44 C-88.866 43.732 -87.731 43.464 -86.562 43.188 C-85.975 42.992 -85.975 42.992 -83 42 C-82.67 41.01 -82.34 40.02 -82 39 C-79.82 37.465 -79.82 37.465 -77.125 35.938 C-74.353 34.35 -71.66 32.773 -69 31 C-68.01 31 -67.02 31 -66 31 C-65.67 30.01 -65.34 29.02 -65 28 C-63.672 27.646 -62.338 27.315 -61 27 C-60.587 26.526 -60.175 26.051 -59.75 25.562 C-56.93 23.044 -53.66 22.78 -50 22 C-50 21.34 -50 20.68 -50 20 C-49.241 19.662 -48.481 19.325 -47.699 18.977 C-46.705 18.531 -45.711 18.085 -44.688 17.625 C-43.701 17.184 -42.715 16.743 -41.699 16.289 C-39 15 -39 15 -36 13 C-33.957 12.586 -33.957 12.586 -31.812 12.375 C-30.554 12.251 -29.296 12.127 -28 12 C-28 11.34 -28 10.68 -28 10 C-26.397 9.495 -24.793 8.996 -23.188 8.5 C-22.294 8.222 -21.401 7.943 -20.48 7.656 C-18 7 -18 7 -15 7 C-15 6.34 -15 5.68 -15 5 C-14.001 4.723 -13.002 4.446 -11.973 4.16 C-10.669 3.794 -9.366 3.429 -8.062 3.062 C-7.403 2.88 -6.744 2.698 -6.064 2.51 C-1.113 1.113 -1.113 1.113 0 0 Z " fill="#F5F5F0" transform="translate(355,257)"/>
<path d="M0 0 C1.035 2.028 1.991 3.975 2.75 6.125 C4.597 8.895 6.875 9.185 10 10 C10 10.66 10 11.32 10 12 C11.23 12.254 12.46 12.508 13.727 12.77 C15.359 13.117 16.992 13.464 18.625 13.812 C19.433 13.978 20.241 14.144 21.074 14.314 C32.345 16.743 32.345 16.743 35.375 20.875 C36.836 25.841 35.701 29.246 33.5 33.812 C33.036 34.788 32.572 35.764 32.094 36.77 C31.913 37.138 31.913 37.138 31 39 C30.34 39 29.68 39 29 39 C28.67 39.99 28.34 40.98 28 42 C27.572 41.992 27.572 41.992 25.405 41.952 C22.181 41.901 18.956 41.863 15.732 41.835 C14.345 41.82 12.958 41.8 11.572 41.774 C3.247 41.62 -4.168 41.935 -12 45 C-12.505 45.181 -12.505 45.181 -15.059 46.098 C-15.844 46.416 -16.629 46.734 -17.438 47.062 C-18.241 47.383 -19.044 47.704 -19.871 48.035 C-22 49 -22 49 -25 51 C-25.99 51 -26.98 51 -28 51 C-28 51.66 -28 52.32 -28 53 C-35.669 54.863 -44.423 56.948 -51.938 53.75 C-52.278 53.461 -52.278 53.461 -54 52 C-54.722 51.443 -55.444 50.886 -56.188 50.312 C-58.75 47.043 -59.188 44.058 -60 40 C-60.557 40.433 -61.114 40.866 -61.688 41.312 C-64 43 -64 43 -66.625 44.562 C-69 46 -69 46 -71 48 C-74.125 48.125 -74.125 48.125 -77 48 C-77 48.66 -77 49.32 -77 50 C-81.161 51.387 -85.08 51.184 -89.438 51.188 C-90.297 51.2 -91.156 51.212 -92.041 51.225 C-92.456 51.226 -92.456 51.226 -94.559 51.23 C-95.315 51.235 -96.071 51.239 -96.849 51.243 C-99.314 50.965 -100.909 50.322 -103 49 C-103.75 46.875 -103.75 46.875 -104 45 C-104.66 45 -105.32 45 -106 45 C-106 44.34 -106 43.68 -106 43 C-106.66 43 -107.32 43 -108 43 C-110.738 38.893 -112.26 35.036 -111.625 30.062 C-111.522 29.722 -111.522 29.722 -111 28 C-110.34 28 -109.68 28 -109 28 C-108.732 27.423 -108.464 26.845 -108.188 26.25 C-106.961 23.926 -105.752 21.962 -104 20 C-103.01 20 -102.02 20 -101 20 C-98.643 22.532 -98 23.472 -98 27 C-97.34 27 -96.68 27 -96 27 C-95.587 27.619 -95.175 28.238 -94.75 28.875 C-91.766 32.498 -87.877 32.9 -83.352 33.414 C-82.122 33.484 -80.892 33.553 -79.625 33.625 C-78.38 33.7 -77.135 33.775 -75.852 33.852 C-74.911 33.901 -73.97 33.95 -73 34 C-73 33.34 -73 32.68 -73 32 C-71.35 32 -69.7 32 -68 32 C-67.835 31.505 -67.835 31.505 -67 29 C-65.058 28.243 -63.111 27.495 -61.137 26.828 C-59.058 26.023 -57.444 25.088 -55.625 23.812 C-53 22 -53 22 -51 22 C-50.918 23.279 -50.835 24.558 -50.75 25.875 C-50.488 28.086 -50.488 28.086 -50 30 C-47.938 31.5 -47.938 31.5 -46 32 C-46 32.66 -46 33.32 -46 34 C-44.02 34.33 -42.04 34.66 -40 35 C-40 35.66 -40 36.32 -40 37 C-32.421 36.762 -26.021 36.11 -19.121 32.84 C-17 32 -17 32 -13 32 C-12.835 31.505 -12.835 31.505 -12 29 C-10.68 28.835 -10.68 28.835 -4 28 C-4.165 27.505 -4.165 27.505 -5 25 C-5.66 24.67 -6.32 24.34 -7 24 C-8.226 14.287 -5.012 8.042 0 0 Z " fill="#707965" transform="translate(473,427)"/>
<path d="M0 0 C1.133 -0.014 2.266 -0.028 3.434 -0.043 C6.417 0.177 8.055 0.629 10.562 2.188 C10.562 2.848 10.562 3.507 10.562 4.188 C10.88 4.314 10.88 4.314 12.484 4.957 C14.562 6.188 14.562 6.188 15.812 9.875 C17.388 18.465 17.206 27.63 15.562 36.188 C15.233 36.188 14.903 36.188 14.562 36.188 C14.397 34.207 14.397 34.207 13.562 24.188 C12.903 24.188 12.243 24.188 11.562 24.188 C10.902 21.877 10.243 19.567 9.562 17.188 C9.026 17.105 8.49 17.022 7.938 16.938 C5.562 16.188 5.562 16.188 3 14.125 C-1.772 11.436 -6.065 11.652 -11.438 12.188 C-11.767 12.353 -11.767 12.353 -13.438 13.188 C-13.789 19.049 -13.597 23.039 -10.438 28.188 C-10.025 29.012 -9.613 29.837 -9.188 30.688 C-7.11 33.656 -4.7 35.63 -1.863 37.855 C-1.393 38.295 -0.922 38.735 -0.438 39.188 C-0.438 39.847 -0.438 40.507 -0.438 41.188 C0.162 41.436 0.761 41.685 1.379 41.941 C5.399 44.236 7.264 48.284 9.562 52.188 C9.809 52.585 9.809 52.585 11.059 54.594 C16.428 64.45 15.652 76.415 13.562 87.188 C12.903 87.188 12.243 87.188 11.562 87.188 C11.514 87.779 11.465 88.371 11.414 88.98 C10.998 93.379 10.513 97.157 8.562 101.188 C7.902 101.188 7.243 101.188 6.562 101.188 C6.525 100.451 6.488 99.715 6.449 98.957 C6.085 93.556 5.801 89.693 2.562 85.188 C2.562 84.197 2.562 83.207 2.562 82.188 C1.408 82.517 1.408 82.517 -4.438 84.188 C-4.798 83.806 -4.798 83.806 -6.625 81.875 C-9.135 79.476 -11.406 77.833 -14.438 76.188 C-13.952 73.065 -13.439 70.192 -12.438 67.188 C-11.777 67.188 -11.118 67.188 -10.438 67.188 C-10.293 66.383 -10.149 65.579 -10 64.75 C-9.438 62.188 -9.438 62.188 -8.438 61.188 C-5.747 61.364 -3.109 61.806 -0.438 62.188 C-0.438 62.847 -0.438 63.507 -0.438 64.188 C0.223 64.188 0.882 64.188 1.562 64.188 C2.936 65.48 4.273 66.812 5.562 68.188 C5.233 66.207 4.902 64.228 4.562 62.188 C3.902 62.188 3.243 62.188 2.562 62.188 C2.562 61.528 2.562 60.868 2.562 60.188 C2.067 60.022 2.067 60.022 -0.438 59.188 C-1.137 57.871 -1.805 56.537 -2.438 55.188 C-3.098 54.858 -3.757 54.528 -4.438 54.188 C-4.438 53.528 -4.438 52.868 -4.438 52.188 C-4.747 52.157 -4.747 52.157 -6.312 52 C-8.438 51.188 -8.438 51.188 -9.688 48.625 C-9.935 47.821 -10.183 47.016 -10.438 46.188 C-11.098 46.188 -11.757 46.188 -12.438 46.188 C-14.869 42.821 -15.438 41.454 -15.438 37.188 C-16.757 36.858 -18.077 36.528 -19.438 36.188 C-22.336 24.958 -19.203 15.942 -13.719 6.133 C-10.05 0.562 -6.506 0.037 0 0 Z " fill="#9C8C59" transform="translate(440.4375,307.8125)"/>
<path d="M0 0 C6.361 0.415 11.612 2.592 17 6 C17.33 6.495 17.33 6.495 19 9 C21.625 10.188 21.625 10.188 24 11 C24.125 17.75 24.125 17.75 23 20 C22.34 20 21.68 20 21 20 C20.34 22.97 19.68 25.94 19 29 C20.402 29.227 21.805 29.454 23.25 29.688 C26.699 30.45 27.802 30.802 30.375 33.375 C30.911 34.241 31.447 35.107 32 36 C32.577 36.577 33.155 37.155 33.75 37.75 C35.754 41.358 35.55 44.971 35 49 C33.625 51.75 33.625 51.75 32 54 C31.67 54.908 31.34 55.815 31 56.75 C30.67 57.492 30.34 58.235 30 59 C29.01 59.33 28.02 59.66 27 60 C26.835 60.33 26.835 60.33 26 62 C25.608 60.969 25.216 59.938 24.812 58.875 C21.748 51.885 18.143 48.556 11.16 45.746 C8.793 44.929 6.486 44.321 4 44 C4 43.01 4 42.02 4 41 C3.608 41.021 3.608 41.021 1.625 41.125 C-1 41 -1 41 -3 39 C-2.609 34.938 -1.034 31.413 0.562 27.688 C1.018 26.619 1.473 25.55 1.941 24.449 C2.291 23.641 2.64 22.833 3 22 C1.68 21.67 0.36 21.34 -1 21 C-1 20.34 -1 19.68 -1 19 C-2.65 19 -4.3 19 -6 19 C-5.578 13.93 -4.402 10.344 -1.938 5.895 C-0.973 3.945 -0.452 2.122 0 0 Z " fill="#9C8B51" transform="translate(375,572)"/>
<path d="M0 0 C2.292 0.141 4.584 0.288 6.875 0.438 C8.151 0.519 9.427 0.6 10.742 0.684 C14 1 14 1 16 2 C17.83 2.203 19.664 2.365 21.5 2.5 C26.778 2.889 26.778 2.889 29 4 C29.36 9.639 28.75 14.961 26 20 C22.924 21.991 20.634 22.202 17 22 C17 22.66 17 23.32 17 24 C7.59 26.112 7.59 26.112 3 27 C3 27.66 3 28.32 3 29 C2.301 29.254 1.603 29.508 0.883 29.77 C-0.027 30.114 -0.937 30.458 -1.875 30.812 C-2.78 31.149 -3.685 31.485 -4.617 31.832 C-7 33 -7 33 -9 36 C-14.333 39 -14.333 39 -17 39 C-17 38.34 -17 37.68 -17 37 C-16.361 36.526 -15.721 36.051 -15.062 35.562 C-13 34 -13 34 -12 31 C-10.667 30.667 -9.333 30.333 -8 30 C-7.67 29.01 -7.34 28.02 -7 27 C-6.01 26.67 -5.02 26.34 -4 26 C-3.505 25.319 -3.01 24.639 -2.5 23.938 C-2.005 23.298 -1.51 22.659 -1 22 C-0.01 22 0.98 22 2 22 C2 21.34 2 20.68 2 20 C3.5 18.375 3.5 18.375 5 17 C3.35 17 1.7 17 0 17 C0 16.34 0 15.68 0 15 C-0.99 14.67 -1.98 14.34 -3 14 C-2.483 9.004 -1.678 4.763 0 0 Z " fill="#9C8A55" transform="translate(272,348)"/>
<path d="M0 0 C0 0.66 0 1.32 0 2 C0.825 2.165 0.825 2.165 5 3 C5.33 4.32 5.66 5.64 6 7 C6.66 7 7.32 7 8 7 C11.774 12.435 12.7 17.407 12 24 C10.255 28.311 7.18 30.739 3.621 33.57 C2 35 2 35 0 38 C-1.32 38 -2.64 38 -4 38 C-3.954 37.371 -3.907 36.742 -3.859 36.094 C-3.597 29.864 -4.181 25.084 -8 20 C-10.625 18.188 -10.625 18.188 -13 17 C-15 14 -15 14 -14.625 11.312 C-14.419 10.549 -14.212 9.786 -14 9 C-13.01 8.67 -12.02 8.34 -11 8 C-11 7.01 -11 6.02 -11 5 C-5.231 -0.769 -5.231 -0.769 0 0 Z " fill="#9E8E59" transform="translate(405,483)"/>
<path d="M0 0 C-0.99 3.3 -1.98 6.6 -3 10 C-3.66 10 -4.32 10 -5 10 C-5 10.66 -5 11.32 -5 12 C-5.928 12.062 -6.856 12.124 -7.812 12.188 C-12.436 12.81 -16.312 14.876 -20.449 16.941 C-23 18 -23 18 -27 18 C-27 18.66 -27 19.32 -27 20 C-32.7 21.943 -32.7 21.943 -35.312 22.438 C-35.869 22.623 -36.426 22.809 -37 23 C-37.33 23.99 -37.66 24.98 -38 26 C-40.062 26.688 -40.062 26.688 -42 27 C-42 27.66 -42 28.32 -42 29 C-43.65 29.33 -45.3 29.66 -47 30 C-47.33 31.32 -47.66 32.64 -48 34 C-48.66 34 -49.32 34 -50 34 C-50.268 34.598 -50.536 35.196 -50.812 35.812 C-52.01 38.018 -53.045 39.436 -55 41 C-55.99 41 -56.98 41 -58 41 C-58.33 42.32 -58.66 43.64 -59 45 C-59.66 45 -60.32 45 -61 45 C-61 43.68 -61 42.36 -61 41 C-60.34 41 -59.68 41 -59 41 C-58.876 40.432 -58.752 39.863 -58.625 39.277 C-56.849 32.629 -53.751 28.797 -48 25 C-47.34 25 -46.68 25 -46 25 C-45.67 24.01 -45.34 23.02 -45 22 C-44.34 22 -43.68 22 -43 22 C-43 21.34 -43 20.68 -43 20 C-42.34 20 -41.68 20 -41 20 C-40.67 19.01 -40.34 18.02 -40 17 C-37.104 15.552 -35.258 15 -32 15 C-32 14.34 -32 13.68 -32 13 C-25.669 8.374 -16.187 1.944 -8 3 C-8 2.34 -8 1.68 -8 1 C-5.108 0.174 -3.113 0 0 0 Z " fill="#9B9266" transform="translate(337,425)"/>
<path d="M0 0 C10.125 0 10.125 0 14.062 2 C14.817 2.371 15.571 2.742 16.348 3.125 C16.893 3.414 17.438 3.702 18 4 C18 4.99 18 5.98 18 7 C18.66 7 19.32 7 20 7 C20.33 9.31 20.66 11.62 21 14 C20.34 14 19.68 14 19 14 C18.918 14.742 18.835 15.485 18.75 16.25 C17.851 19.547 16.576 20.814 14 23 C9.815 25.092 4.679 24 0 24 C0 16.08 0 8.16 0 0 Z " fill="#EEF0E9" transform="translate(313,704)"/>
<path d="M0 0 C0.628 -0.013 0.628 -0.013 3.805 -0.078 C7.125 0.25 7.125 0.25 9.086 1.578 C10.125 3.25 10.125 3.25 9.875 6.25 C9.125 9.25 9.125 9.25 8.125 12.25 C9.115 12.58 10.105 12.91 11.125 13.25 C11.435 16.656 11.591 18.584 9.594 21.438 C6.247 23.895 3.351 23.695 -0.625 23.5 C-1.322 23.482 -2.02 23.464 -2.738 23.445 C-4.451 23.398 -6.163 23.327 -7.875 23.25 C-7.904 19.604 -7.922 15.958 -7.938 12.312 C-7.946 11.272 -7.954 10.231 -7.963 9.158 C-7.965 8.664 -7.965 8.664 -7.973 6.16 C-7.978 5.244 -7.983 4.327 -7.989 3.383 C-7.741 -1.272 -3.844 0.047 0 0 Z " fill="#A2A39D" transform="translate(407.875,704.75)"/>
<path d="M0 0 C13.102 -0.142 13.102 -0.142 16 1 C18.152 4.228 18.201 5.284 18 9 C17.34 9 16.68 9 16 9 C16 9.99 16 10.98 16 12 C15.67 12.165 15.67 12.165 14 13 C14.072 13.289 14.072 13.289 14.438 14.75 C14.958 16.833 15.479 18.917 16 21 C16.66 21 17.32 21 18 21 C18 21.66 18 22.32 18 23 C16.68 23 15.36 23 14 23 C13.67 21.35 13.34 19.7 13 18 C12.34 18 11.68 18 11 18 C10.814 17.361 10.629 16.721 10.438 16.062 C9 14 9 14 5.375 13.25 C4.261 13.168 3.147 13.085 2 13 C2 16.3 2 19.6 2 23 C1.34 23 0.68 23 0 23 C0 15.41 0 7.82 0 0 Z " fill="#898B83" transform="translate(450,705)"/>
<path d="M0 0 C1.32 0 2.64 0 4 0 C4.506 1.268 5.005 2.54 5.5 3.812 C5.778 4.52 6.057 5.228 6.344 5.957 C7 8 7 8 7 11 C7.66 11 8.32 11 9 11 C9.532 12.433 10.05 13.872 10.562 15.312 C10.853 16.113 11.143 16.914 11.441 17.738 C12 20 12 20 11 23 C9 20 9 20 9 17 C4.38 17 -0.24 17 -5 17 C-5.33 18.65 -5.66 20.3 -6 22 C-7.32 22.33 -8.64 22.66 -10 23 C-9.866 22.666 -9.866 22.666 -9.188 20.977 C-8.306 18.766 -7.432 16.552 -6.562 14.336 C-6.042 13.016 -5.521 11.695 -5 10.375 C-4.87 10.041 -4.87 10.041 -4.211 8.352 C-3.011 5.322 -1.815 2.723 0 0 Z " fill="#B9BCB2" transform="translate(481,705)"/>
<path d="M0 0 C1.32 0.33 2.64 0.66 4 1 C4.33 2.65 4.66 4.3 5 6 C5.66 6 6.32 6 7 6 C7.648 7.916 8.293 9.833 8.938 11.75 C9.297 12.817 9.657 13.885 10.027 14.984 C10.78 17.317 11.45 19.614 12 22 C11.34 22 10.68 22 10 22 C9.835 21.175 9.835 21.175 9 17 C4.38 17.33 -0.24 17.66 -5 18 C-5.33 18.825 -5.33 18.825 -7 23 C-7.66 23 -8.32 23 -9 23 C-9 22.01 -9 21.02 -9 20 C-8.34 20 -7.68 20 -7 20 C-7.062 18.948 -7.124 17.896 -7.188 16.812 C-6.983 12.648 -6.3 11.367 -4 8 C-3.254 6.571 -2.525 5.133 -1.812 3.688 C-1.468 2.99 -1.124 2.293 -0.77 1.574 C-0.516 1.055 -0.262 0.535 0 0 Z " fill="#9EA199" transform="translate(432,705)"/>
<path d="M0 0 C10.125 0 10.125 0 14.062 2 C14.817 2.371 15.571 2.742 16.348 3.125 C16.893 3.414 17.438 3.702 18 4 C18 4.99 18 5.98 18 7 C18.66 7 19.32 7 20 7 C20.33 9.31 20.66 11.62 21 14 C20.34 14 19.68 14 19 14 C18.918 14.742 18.835 15.485 18.75 16.25 C17.851 19.547 16.576 20.814 14 23 C9.815 25.092 4.679 24 0 24 C0 16.08 0 8.16 0 0 Z M2 3 C2 9.27 2 15.54 2 22 C9.875 22 9.875 22 14 20 C14 19.34 14 18.68 14 18 C14.99 17.67 15.98 17.34 17 17 C17.447 8.213 17.447 8.213 14 4 C11 3 11 3 2 3 Z " fill="#8C8D85" transform="translate(313,704)"/>
<path d="M0 0 C1.32 0 2.64 0 4 0 C4.33 5.94 4.66 11.88 5 18 C5.66 18.33 6.32 18.66 7 19 C7 19.66 7 20.32 7 21 C12.403 21.36 12.403 21.36 14.656 20 C16.762 16.866 16.576 13.473 16.688 9.812 C16.722 9.063 16.756 8.313 16.791 7.541 C16.873 5.695 16.938 3.847 17 2 C17.66 2 18.32 2 19 2 C19 8.27 19 14.54 19 21 C18.34 21 17.68 21 17 21 C16.67 21.99 16.34 22.98 16 24 C14.231 24.108 12.459 24.186 10.688 24.25 C9.701 24.296 8.715 24.343 7.699 24.391 C5 24 5 24 3.145 22.109 C2 20 2 20 2 18 C1.34 18 0.68 18 0 18 C0 12.06 0 6.12 0 0 Z " fill="#8A8C85" transform="translate(375,704)"/>
<path d="M0 0 C0 7.59 0 15.18 0 23 C-0.66 23 -1.32 23 -2 23 C-2 17.39 -2 11.78 -2 6 C-2.99 6 -3.98 6 -5 6 C-5.268 6.722 -5.536 7.444 -5.812 8.188 C-6.999 10.998 -8.275 13.484 -10 16 C-10.66 16 -11.32 16 -12 16 C-12.289 15.361 -12.577 14.721 -12.875 14.062 C-14 12 -14 12 -16 11 C-16.625 8.438 -16.625 8.438 -17 6 C-17.99 6 -18.98 6 -20 6 C-20 11.28 -20 16.56 -20 22 C-20.33 22 -20.66 22 -21 22 C-21 15.07 -21 8.14 -21 1 C-17 2 -17 2 -15.586 3.812 C-15.186 4.534 -14.787 5.256 -14.375 6 C-12.184 9.908 -12.184 9.908 -10 11 C-9.732 10.464 -9.464 9.928 -9.188 9.375 C-8.796 8.591 -8.404 7.808 -8 7 C-7.505 5.948 -7.01 4.896 -6.5 3.812 C-4.571 0.195 -4.059 0 0 0 Z " fill="#77796E" transform="translate(370,705)"/>
<path d="M0 0 C5.61 0 11.22 0 17 0 C17 0.66 17 1.32 17 2 C12.05 2 7.1 2 2 2 C2.33 4.64 2.66 7.28 3 10 C6.63 10.33 10.26 10.66 14 11 C14 11.33 14 11.66 14 12 C10.37 12 6.74 12 3 12 C3 14.64 3 17.28 3 20 C7.62 20 12.24 20 17 20 C17 20.99 17 21.98 17 23 C11.39 23 5.78 23 0 23 C0 15.41 0 7.82 0 0 Z " fill="#878981" transform="translate(282,705)"/>
<path d="M0 0 C0.66 0 1.32 0 2 0 C2 3.96 2 7.92 2 12 C2.66 12 3.32 12 4 12 C4 11.34 4 10.68 4 10 C4.66 10 5.32 10 6 10 C6.66 8.35 7.32 6.7 8 5 C8.99 5 9.98 5 11 5 C11.33 3.68 11.66 2.36 12 1 C13.65 0.67 15.3 0.34 17 0 C15.606 4.435 13.394 6.874 10 10 C11.556 13.717 13.05 16.265 16.188 18.75 C17.116 19.492 18.044 20.235 19 21 C19 21.66 19 22.32 19 23 C15.793 22.695 14.4 22.469 12.27 19.969 C11.789 19.154 11.308 18.339 10.812 17.5 C8.163 13.081 8.163 13.081 6 12 C5.67 12.99 5.34 13.98 5 15 C4.67 15.165 4.67 15.165 3 16 C2.593 18.322 2.256 20.657 2 23 C1.34 23 0.68 23 0 23 C0 15.41 0 7.82 0 0 Z " fill="#8B8C84" transform="translate(499,705)"/>
<path d="M0 0 C9.107 -0.268 9.107 -0.268 13 2 C13.125 4.375 13.125 4.375 13 7 C11 9 11 9 8.398 9.195 C7.401 9.172 6.403 9.149 5.375 9.125 C4.874 9.116 4.874 9.116 2.336 9.07 C1.565 9.047 0.794 9.024 0 9 C0 6.03 0 3.06 0 0 Z " fill="#EDF0E8" transform="translate(452,707)"/>
<path d="M0 0 C1.625 -0.027 3.25 -0.046 4.875 -0.062 C5.78 -0.074 6.685 -0.086 7.617 -0.098 C10 0 10 0 12 1 C11.67 3.31 11.34 5.62 11 8 C7.37 8 3.74 8 0 8 C0 5.36 0 2.72 0 0 Z " fill="#F0F2EC" transform="translate(404,717)"/>
<path d="M0 0 C0.33 0.99 0.66 1.98 1 3 C0.34 4.32 -0.32 5.64 -1 7 C2.63 7 6.26 7 10 7 C9.67 5.02 9.34 3.04 9 1 C9.33 1.66 9.66 2.32 10 3 C10.66 3 11.32 3 12 3 C12.532 4.433 13.05 5.872 13.562 7.312 C13.853 8.113 14.143 8.914 14.441 9.738 C15 12 15 12 14 15 C12 12 12 12 12 9 C7.38 9 2.76 9 -2 9 C-2.33 10.65 -2.66 12.3 -3 14 C-4.32 14.33 -5.64 14.66 -7 15 C-5.634 11.458 -4.091 8.074 -2.375 4.688 C-2.152 4.246 -2.152 4.246 -1.023 2.012 C-0.686 1.348 -0.348 0.684 0 0 Z " fill="#797B72" transform="translate(478,713)"/>
<path d="M0 0 C3.3 0 6.6 0 10 0 C10.625 2.375 10.625 2.375 11 5 C9 7 9 7 6.836 7.195 C6.43 7.184 6.43 7.184 4.375 7.125 C3.558 7.107 2.74 7.089 1.898 7.07 C1.272 7.047 0.645 7.024 0 7 C0 4.69 0 2.38 0 0 Z " fill="#F1F3EB" transform="translate(404,707)"/>
<path d="M0 0 C0.99 0 1.98 0 3 0 C3 7.59 3 15.18 3 23 C2.01 23 1.02 23 0 23 C0 15.41 0 7.82 0 0 Z " fill="#94968D" transform="translate(304,705)"/>
<path d="M0 0 C0.66 0 1.32 0 2 0 C2 3.3 2 6.6 2 10 C5.3 10 8.6 10 12 10 C12.33 9.34 12.66 8.68 13 8 C13 8.99 13 9.98 13 11 C9.37 11 5.74 11 2 11 C2 13.97 2 16.94 2 20 C5.63 20 9.26 20 13 20 C13 20.33 13 20.66 13 21 C8.71 21 4.42 21 0 21 C0 14.07 0 7.14 0 0 Z " fill="#5F615A" transform="translate(401,706)"/>
</svg>
