<?xml version="1.0" encoding="UTF-8"?>
<!-- Generator: visioncortex VTracer 0.6.12 -->
<svg version="1.1" xmlns="http://www.w3.org/2000/svg" width="800" height="800">
<path d="M0 0 C2.169 0.506 4 1 6 2 C6 2.66 6 3.32 6 4 C6.99 4.33 7.98 4.66 9 5 C17.521 15.05 18.994 26.946 19.5 39.684 C19.52 40.17 19.52 40.17 19.622 42.63 C19.754 45.899 19.878 49.168 20 52.438 C20.043 53.57 20.086 54.702 20.131 55.868 C21.478 91.894 21.67 127.954 22 164 C22.619 164.105 23.239 164.211 23.877 164.32 C26.732 164.81 29.585 165.311 32.438 165.812 C33.411 165.978 34.385 166.144 35.389 166.314 C45.883 168.175 56.719 170.599 64 179 C66.402 183.803 65.643 191.192 64.469 196.32 C63.741 198.275 62.911 200.124 62 202 C61.269 203.666 60.54 205.333 59.812 207 C59.211 208.334 58.607 209.668 58 211 C57.01 211 56.02 211 55 211 C54.918 211.598 54.835 212.196 54.75 212.812 C53.784 215.629 52.511 216.478 50 218 C49.34 218 48.68 218 48 218 C48 218.66 48 219.32 48 220 C34.99 225.681 34.99 225.681 28 227 C27 226 27 226 26.902 222.84 C26.914 221.552 26.926 220.264 26.938 218.938 C26.947 217.647 26.956 216.357 26.965 215.027 C26.976 214.028 26.988 213.029 27 212 C29.081 211.326 31.165 210.661 33.25 210 C34.41 209.629 35.57 209.257 36.766 208.875 C40 208 40 208 44 208 C44 207.34 44 206.68 44 206 C44.603 205.807 45.207 205.613 45.828 205.414 C46.627 205.154 47.427 204.893 48.25 204.625 C49.039 204.37 49.828 204.115 50.641 203.852 C52.866 203.048 54.909 202.103 57 201 C56.783 197.206 56.056 196.056 53.312 193.312 C50.416 191.083 47.55 189.93 44 189 C44 188.34 44 187.68 44 187 C42.928 186.897 41.855 186.794 40.75 186.688 C37.23 186.257 33.922 185.488 30.5 184.562 C18.986 181.597 7.164 180.824 -4.672 180.246 C-8 180 -8 180 -9.966 179.508 C-13.437 178.641 -17.011 178.536 -20.57 178.281 C-21.407 178.218 -22.243 178.156 -23.104 178.091 C-25.778 177.891 -28.451 177.695 -31.125 177.5 C-60.685 175.317 -60.685 175.317 -66 173 C-67.474 172.644 -68.954 172.313 -70.438 172 C-78.667 170.2 -87.121 167.349 -92.309 160.195 C-95.216 153.935 -94.236 148.281 -92 142 C-89.907 137.835 -87.585 133.877 -85 130 C-84.01 130 -83.02 130 -82 130 C-81.794 129.443 -81.587 128.886 -81.375 128.312 C-79.408 125.004 -77.109 123.284 -74 121 C-73.01 121 -72.02 121 -71 121 C-71 120.34 -71 119.68 -71 119 C-67.856 116.415 -64.391 114.248 -61 112 C-60.007 111.335 -59.015 110.67 -57.992 109.984 C-50.394 105 -50.394 105 -47 105 C-47 104.34 -47 103.68 -47 103 C-46.031 102.515 -45.061 102.031 -44.062 101.531 C-43.423 101.211 -42.783 100.891 -42.124 100.562 C-40.691 99.846 -39.259 99.13 -37.826 98.415 C-34.12 96.565 -30.418 94.707 -26.727 92.828 C-7.372 83 -7.372 83 -1 83 C-1 82.34 -1 81.68 -1 81 C-0.34 80.897 0.32 80.794 1 80.688 C4.838 79.808 8.331 78.43 12 77 C12.641 41.312 12.641 41.312 5.367 29.305 C4 27 4 27 4 24 C3.34 24 2.68 24 2 24 C0.29 22.378 -1.373 20.706 -3 19 C-3.619 18.526 -4.238 18.051 -4.875 17.562 C-6 16 -6 16 -6 13.438 C-4.604 8.64 -2.353 4.393 0 0 Z M2.75 94.5 C1.672 94.778 0.595 95.057 -0.516 95.344 C-1.335 95.56 -2.155 95.777 -3 96 C-3 96.66 -3 97.32 -3 98 C-3.949 98.082 -4.897 98.165 -5.875 98.25 C-10.911 98.977 -15.349 101.012 -20 103 C-22.208 103.918 -24.416 104.834 -26.625 105.75 C-28.417 106.499 -30.209 107.249 -32 108 C-32 108.66 -32 109.32 -32 110 C-32.857 110.097 -33.714 110.193 -34.598 110.293 C-38.381 111.079 -41.073 112.426 -44.438 114.312 C-45.564 114.939 -46.691 115.565 -47.852 116.211 C-48.891 116.801 -49.93 117.392 -51 118 C-51.396 118.223 -51.396 118.223 -53.398 119.352 C-54.938 120.225 -56.47 121.11 -58 122 C-58 122.66 -58 123.32 -58 124 C-58.722 124.082 -59.444 124.165 -60.188 124.25 C-63.61 125.163 -65.287 126.739 -68 129 C-69.713 129.983 -71.426 130.966 -73.152 131.926 C-76.286 133.748 -79.134 135.777 -82 138 C-82 138.66 -82 139.32 -82 140 C-83.32 140.66 -84.64 141.32 -86 142 C-82.938 145.937 -80.545 148.778 -76 151 C-75.685 151.159 -75.685 151.159 -74.094 151.961 C-63.797 156.651 -52.014 157.671 -40.85 158.73 C-39 159 -39 159 -37 160 C-35.579 160.174 -34.15 160.295 -32.721 160.389 C-31.837 160.449 -30.952 160.509 -30.041 160.571 C-29.082 160.631 -28.124 160.692 -27.137 160.754 C-26.153 160.819 -25.168 160.884 -24.154 160.951 C-22.069 161.089 -19.983 161.224 -17.898 161.357 C-14.711 161.561 -11.524 161.771 -8.338 161.982 C-6.313 162.115 -4.287 162.247 -2.262 162.379 C-1.309 162.441 -0.357 162.504 0.624 162.568 C1.518 162.625 2.412 162.682 3.333 162.74 C3.724 162.766 3.724 162.766 5.704 162.893 C8.133 163.006 10.568 163 13 163 C13 139.9 13 116.8 13 93 C9.2 93 6.4 93.548 2.75 94.5 Z " fill="#000000" transform="translate(346,164)"/>
<path d="M0 0 C7 1 7 1 8 2 C9.724 16.681 9.318 31.692 9.532 46.449 C9.583 49.902 9.638 53.355 9.693 56.809 C9.799 63.539 9.901 70.269 10 77 C10.66 77.33 11.32 77.66 12 78 C12 77.34 12 76.68 12 76 C12.598 75.732 13.196 75.464 13.812 75.188 C16.017 73.991 17.247 72.766 19 71 C20.145 70.076 21.312 69.18 22.5 68.312 C23.088 67.876 23.676 67.439 24.281 66.988 C26 66 26 66 29 66 C29 65.34 29 64.68 29 64 C38.396 59.128 46.19 55.172 57 56 C57 56.66 57 57.32 57 58 C57.382 58.062 57.382 58.062 59.312 58.375 C62 59 62 59 65 61 C65 61.66 65 62.32 65 63 C65.66 63 66.32 63 67 63 C68.486 69.934 68.042 77.013 67 84 C66.34 84.66 65.68 85.32 65 86 C61.125 80.375 61.125 80.375 60 77 C53.971 74.454 43.674 75.119 37.441 76.613 C35.171 77.588 33.124 78.738 31 80 C29.946 80.548 28.891 81.096 27.805 81.66 C15.708 88.043 6.072 96.943 -3.879 106.223 C-6 108 -6 108 -8.215 108.996 C-8.804 109.327 -9.393 109.659 -10 110 C-10.354 111.328 -10.685 112.662 -11 114 C-12.742 115.781 -12.742 115.781 -14.875 117.5 C-17.116 119.32 -18.917 120.887 -20.633 123.219 C-20.858 123.513 -20.858 123.513 -22 125 C-22.66 125 -23.32 125 -24 125 C-24.165 125.495 -24.165 125.495 -25 128 C-26.64 129.366 -28.311 130.695 -30 132 C-32.236 134.179 -34.422 136.395 -36.578 138.652 C-38.017 140.137 -39.506 141.572 -41 143 C-41.66 143 -42.32 143 -43 143 C-43 143.66 -43 144.32 -43 145 C-43.99 145 -44.98 145 -46 145 C-46 145.66 -46 146.32 -46 147 C-49.637 150.306 -53.686 152.701 -58 155 C-58.913 155.5 -59.825 156 -60.766 156.516 C-71.494 162.183 -80.896 164.359 -93 162 C-96.533 160.625 -99.768 158.977 -103 157 C-103 156.34 -103 155.68 -103 155 C-103.66 155 -104.32 155 -105 155 C-113.812 145.284 -115.741 134.798 -117 122 C-117.33 121.34 -117.66 120.68 -118 120 C-118.714 111.566 -117.402 104.064 -115 96 C-114.67 96 -114.34 96 -114 96 C-113.89 97.183 -113.781 98.367 -113.668 99.586 C-112.535 111.146 -111.084 120.93 -105 131 C-105 131.66 -105 132.32 -105 133 C-104.34 133 -103.68 133 -103 133 C-100.375 135.375 -100.375 135.375 -98 138 C-98 138.66 -98 139.32 -98 140 C-97.645 140.102 -97.645 140.102 -95.848 140.621 C-95.388 140.756 -95.388 140.756 -93.062 141.438 C-92.146 141.704 -91.229 141.971 -90.285 142.246 C-88 143 -88 143 -87 144 C-71.846 145.435 -60.03 141.3 -48 132 C-46.883 131.238 -45.759 130.486 -44.625 129.75 C-42 128 -42 128 -39.75 126.25 C-38 125 -38 125 -36 125 C-35.747 124.411 -35.495 123.822 -35.234 123.215 C-33.855 120.74 -32.414 119.378 -30.25 117.562 C-29.54 116.959 -28.829 116.356 -28.098 115.734 C-26.818 114.677 -25.535 113.623 -24.246 112.578 C-21.379 110.25 -19.19 107.956 -17 105 C-16.34 105 -15.68 105 -15 105 C-14.732 104.361 -14.464 103.721 -14.188 103.062 C-13 101 -13 101 -10 100 C-9.302 98.683 -8.639 97.347 -8 96 C-6.344 94.078 -6.344 94.078 -4.5 92.25 C-3.892 91.636 -3.283 91.023 -2.656 90.391 C-1 89 -1 89 1 89 C1 74.48 1 59.96 1 45 C-2.96 46.32 -6.92 47.64 -11 49 C-14.761 49.788 -18.465 50.51 -22.25 51.125 C-32.784 52.895 -32.784 52.895 -37.215 54.031 C-40.902 54.975 -44.568 55.703 -48.312 56.375 C-51.209 56.912 -54.104 57.457 -57 58 C-57.763 58.142 -58.527 58.283 -59.313 58.429 C-73.549 61.105 -87.992 64.375 -100.434 72.117 C-102 73 -102 73 -104 73 C-104 73.66 -104 74.32 -104 75 C-104.66 75.165 -104.66 75.165 -108 76 C-108.425 71.525 -107.326 69.448 -104.688 65.875 C-104.38 65.451 -104.38 65.451 -102.824 63.305 C-101.297 61.375 -99.867 59.6 -98 58 C-97.34 58 -96.68 58 -96 58 C-96 57.34 -96 56.68 -96 56 C-95.01 56 -94.02 56 -93 56 C-93 55.34 -93 54.68 -93 54 C-76.588 45.313 -58.87 41.036 -40.535 38.457 C-38 38 -38 38 -34.746 37.043 C-29.772 35.658 -24.769 34.923 -19.672 34.145 C-14.986 33.403 -10.561 32.334 -6 31 C-4.02 30.67 -2.04 30.34 0 30 C0 20.1 0 10.2 0 0 Z " fill="#000000" transform="translate(358,350)"/>
<path d="M0 0 C2 3 2 3 2.688 4.938 C5.349 9.119 9.451 10.608 14.07 11.777 C16.323 12.261 18.575 12.742 20.828 13.223 C25.088 14.267 28.276 15.681 32 18 C33.207 20.129 33.207 20.129 34 22 C34.66 22 35.32 22 36 22 C35.218 26.847 33.602 31.377 32 36 C31.34 36 30.68 36 30 36 C29.34 37.65 28.68 39.3 28 41 C27.414 40.922 27.414 40.922 24.449 40.527 C13.42 39.132 3.673 38.246 -7 42 C-8.076 42.367 -9.153 42.735 -10.262 43.113 C-16.931 45.448 -23.406 47.958 -29.793 50.984 C-33.797 52.827 -36.995 53.19 -41.375 53.25 C-42.496 53.276 -43.618 53.302 -44.773 53.328 C-48.328 52.967 -50.11 52.037 -53 50 C-53.722 49.567 -54.444 49.134 -55.188 48.688 C-57.664 46.382 -58.203 44.253 -59 41 C-59 39.68 -59 38.36 -59 37 C-59.978 37.687 -60.957 38.374 -61.965 39.082 C-72.764 46.558 -81.358 51.673 -95 50 C-100.363 48.354 -104.503 45.396 -108 41 C-110.016 36.85 -111.288 32.56 -112 28 C-110.88 26.994 -109.754 25.995 -108.625 25 C-107.999 24.443 -107.372 23.886 -106.727 23.312 C-105 22 -105 22 -103 22 C-103 21.01 -103 20.02 -103 19 C-102.34 19 -101.68 19 -101 19 C-100.691 20.031 -100.381 21.062 -100.062 22.125 C-98.217 26.244 -95.758 28.555 -91.926 30.895 C-84.763 33.601 -75.295 33.409 -68.25 30.375 C-66.822 29.604 -65.406 28.81 -64 28 C-61.816 26.909 -59.628 25.826 -57.438 24.75 C-55.624 23.835 -53.811 22.919 -52 22 C-50.743 24.906 -50 26.796 -50 30 C-49.34 30 -48.68 30 -48 30 C-48 30.66 -48 31.32 -48 32 C-47.639 32.144 -47.639 32.144 -45.812 32.875 C-43 34 -43 34 -40.75 35.125 C-30.21 38.479 -19.786 33.474 -10.375 28.812 C-9.261 28.214 -8.147 27.616 -7 27 C-5.669 26.33 -4.336 25.662 -3 25 C-3.66 24.505 -4.32 24.01 -5 23.5 C-7.311 20.611 -7.578 18.681 -7.395 15.012 C-6.762 11.785 -4.94 9.606 -3 7 C-1.885 4.701 -0.95 2.375 0 0 Z " fill="#000000" transform="translate(473,428)"/>
<path d="M0 0 C2.97 0 5.94 0 9 0 C9 0.33 9 0.66 9 1 C6.36 1 3.72 1 1 1 C1.084 1.617 1.168 2.235 1.254 2.871 C1.97 8.825 1.861 14.067 1 20 C5.62 20 10.24 20 15 20 C15 20.33 15 20.66 15 21 C10.05 21 5.1 21 0 21 C0 14.07 0 7.14 0 0 Z " fill="#000000" transform="translate(283,706)"/>
<path d="M0 0 C0.99 0.33 1.98 0.66 3 1 C2.34 1 1.68 1 1 1 C1 7.27 1 13.54 1 20 C3.97 20 6.94 20 10 20 C10 20.33 10 20.66 10 21 C6.7 21 3.4 21 0 21 C0 14.07 0 7.14 0 0 Z " fill="#000000" transform="translate(314,706)"/>
<path d="M0 0 C4 2 4 2 5.25 4.625 C5.498 5.409 5.745 6.192 6 7 C5.34 6.67 4.68 6.34 4 6 C4 5.34 4 4.68 4 4 C3.34 4 2.68 4 2 4 C1.67 9.61 1.34 15.22 1 21 C0.67 21 0.34 21 0 21 C0 14.07 0 7.14 0 0 Z " fill="#000000" transform="translate(349,706)"/>
<path d="M0 0 C0.66 0 1.32 0 2 0 C2 6.93 2 13.86 2 21 C1.67 21 1.34 21 1 21 C0.67 14.07 0.34 7.14 0 0 Z " fill="#000000" transform="translate(367,706)"/>
<path d="M0 0 C0.66 0 1.32 0 2 0 C2.33 5.61 2.66 11.22 3 17 C2.34 17 1.68 17 1 17 C0.67 11.39 0.34 5.78 0 0 Z " fill="#000000" transform="translate(376,706)"/>
<path d="M0 0 C0.66 0 1.32 0 2 0 C2 5.61 2 11.22 2 17 C1.34 17 0.68 17 0 17 C0 11.39 0 5.78 0 0 Z " fill="#000000" transform="translate(392,706)"/>
<path d="M0 0 C0.99 0.33 1.98 0.66 3 1 C3.121 7.433 2.824 13.618 2 20 C5.63 20 9.26 20 13 20 C13 20.33 13 20.66 13 21 C8.71 21 4.42 21 0 21 C0 14.07 0 7.14 0 0 Z " fill="#000000" transform="translate(401,706)"/>
<path d="M0 0 C2.97 0 5.94 0 9 0 C9 0.33 9 0.66 9 1 C6.36 1 3.72 1 1 1 C1 4.3 1 7.6 1 11 C4.3 11 7.6 11 11 11 C10.67 11.99 10.34 12.98 10 14 C10 13.34 10 12.68 10 12 C7.03 12 4.06 12 1 12 C1.33 13.98 1.66 15.96 2 18 C1.34 18 0.68 18 0 18 C0 12.06 0 6.12 0 0 Z " fill="#000000" transform="translate(450,706)"/>
<path d="M0 0 C1 3 1 3 -0.438 6.188 C-0.695 6.652 -0.695 6.652 -2 9 C1.63 9 5.26 9 9 9 C9 8.01 9 7.02 9 6 C9.66 6 10.32 6 11 6 C11 7.32 11 8.64 11 10 C6.38 10.33 1.76 10.66 -3 11 C-3.66 12.65 -4.32 14.3 -5 16 C-5.66 15.67 -6.32 15.34 -7 15 C-6.024 12.686 -5.044 10.374 -4.062 8.062 C-3.785 7.403 -3.507 6.744 -3.221 6.064 C-1.113 1.113 -1.113 1.113 0 0 Z " fill="#000000" transform="translate(479,711)"/>
<path d="M0 0 C0.33 0.99 0.66 1.98 1 3 C2.792 2.859 4.584 2.712 6.375 2.562 C7.373 2.481 8.37 2.4 9.398 2.316 C12 2 12 2 14 1 C14 1.99 14 2.98 14 4 C9.38 4 4.76 4 0 4 C-0.66 5.32 -1.32 6.64 -2 8 C-1.125 2.25 -1.125 2.25 0 0 Z " fill="#000000" transform="translate(427,717)"/>
</svg>
